<?xml version="1.0" encoding="UTF-8" standalone="no"?><!-- (CC BY-SA 4.0) Max Braun https://goo.gl/GwN3xB --><svg xmlns:android="http://schemas.android.com/apk/res/android" height="72.0" width="72.0" xmlns="http://www.w3.org/2000/svg">
  <path d="M49.5,21c-1.7,0 -3.3,0.3 -4.8,0.7C41,15.9 34.4,12 27,12C15.4,12 6,21.4 6,33s9.4,21 21,21h22.5C58.6,54 66,46.6 66,37.5S58.6,21 49.5,21z" fill="#F5F5F5" fill-opacity="1.0"/>
  <path d="M44.7,64.5m-1.5,0a1.5,1.5 0,1 1,3 0a1.5,1.5 0,1 1,-3 0" fill="#FFFFFF" fill-opacity="1.0"/>
  <path d="M37.5,64.5m-1.5,0a1.5,1.5 0,1 1,3 0a1.5,1.5 0,1 1,-3 0" fill="#FFFFFF" fill-opacity="1.0"/>
  <path d="M30.3,64.5m-1.5,0a1.5,1.5 0,1 1,3 0a1.5,1.5 0,1 1,-3 0" fill="#FFFFFF" fill-opacity="1.0"/>
  <path d="M23.1,64.5m-1.5,0a1.5,1.5 0,1 1,3 0a1.5,1.5 0,1 1,-3 0" fill="#FFFFFF" fill-opacity="1.0"/>
  <path d="M48.3,60.9m-1.5,0a1.5,1.5 0,1 1,3 0a1.5,1.5 0,1 1,-3 0" fill="#FFFFFF" fill-opacity="1.0"/>
  <path d="M41.1,60.9m-1.5,0a1.5,1.5 0,1 1,3 0a1.5,1.5 0,1 1,-3 0" fill="#FFFFFF" fill-opacity="1.0"/>
  <path d="M33.9,60.9m-1.5,0a1.5,1.5 0,1 1,3 0a1.5,1.5 0,1 1,-3 0" fill="#FFFFFF" fill-opacity="1.0"/>
  <path d="M26.7,60.9m-1.5,0a1.5,1.5 0,1 1,3 0a1.5,1.5 0,1 1,-3 0" fill="#FFFFFF" fill-opacity="1.0"/>
  <path d="M15.9,64.5m-1.5,0a1.5,1.5 0,1 1,3 0a1.5,1.5 0,1 1,-3 0" fill="#FFFFFF" fill-opacity="1.0"/>
  <path d="M19.5,60.9m-1.5,0a1.5,1.5 0,1 1,3 0a1.5,1.5 0,1 1,-3 0" fill="#FFFFFF" fill-opacity="1.0"/>
  <path d="M44.7,57.3m-1.5,0a1.5,1.5 0,1 1,3 0a1.5,1.5 0,1 1,-3 0" fill="#FFFFFF" fill-opacity="1.0"/>
  <path d="M51.9,57.3m-1.5,0a1.5,1.5 0,1 1,3 0a1.5,1.5 0,1 1,-3 0" fill="#FFFFFF" fill-opacity="1.0"/>
  <path d="M51.9,64.5m-1.5,0a1.5,1.5 0,1 1,3 0a1.5,1.5 0,1 1,-3 0" fill="#FFFFFF" fill-opacity="1.0"/>
  <path d="M37.5,57.3m-1.5,0a1.5,1.5 0,1 1,3 0a1.5,1.5 0,1 1,-3 0" fill="#FFFFFF" fill-opacity="1.0"/>
  <path d="M30.3,57.3m-1.5,0a1.5,1.5 0,1 1,3 0a1.5,1.5 0,1 1,-3 0" fill="#FFFFFF" fill-opacity="1.0"/>
  <path d="M15.9,57.3m-1.5,0a1.5,1.5 0,1 1,3 0a1.5,1.5 0,1 1,-3 0" fill="#FFFFFF" fill-opacity="1.0"/>
  <path d="M55.5,60.9m-1.5,0a1.5,1.5 0,1 1,3 0a1.5,1.5 0,1 1,-3 0" fill="#FFFFFF" fill-opacity="1.0"/>
  <path d="M23.1,57.3m-1.5,0a1.5,1.5 0,1 1,3 0a1.5,1.5 0,1 1,-3 0" fill="#FFFFFF" fill-opacity="1.0"/>
</svg>