<?xml version="1.0" encoding="UTF-8" standalone="no"?><!-- (CC BY-SA 4.0) Max Braun https://goo.gl/GwN3xB --><svg xmlns:android="http://schemas.android.com/apk/res/android" height="72.0" width="72.0" xmlns="http://www.w3.org/2000/svg">
  <path d="M63,60H9c-1.6,0 -3,-1.3 -3,-3v0c0,-1.6 1.3,-3 3,-3h54c1.6,0 3,1.3 3,3v0C66,58.7 64.7,60 63,60z" fill="#F5F5F5" fill-opacity="1.0"/>
  <path d="M63,48H9c-1.6,0 -3,-1.3 -3,-3v0c0,-1.6 1.3,-3 3,-3h54c1.6,0 3,1.3 3,3v0C66,46.7 64.7,48 63,48z" fill="#F5F5F5" fill-opacity="1.0"/>
  <path d="M63,36H9c-1.6,0 -3,-1.3 -3,-3v0c0,-1.6 1.3,-3 3,-3h54c1.6,0 3,1.3 3,3v0C66,34.7 64.7,36 63,36z" fill="#F5F5F5" fill-opacity="1.0"/>
</svg>